<svg xmlns="http://www.w3.org/2000/svg" viewBox="0 0 500 400">
  <style>
    .leaf { fill: #4CAF50; }
    .pot { fill: #8D6E63; }
    .number { font-family: sans-serif; font-size: 72px; font-weight: bold; fill: #333; }
  </style>
  <g transform="translate(150, 100)">
    <!-- Pot -->
    <path class="pot" d="M100,200 L50,300 L150,300 L100,200 Z" />
    <rect class="pot" x="60" y="170" width="80" height="40" rx="5" />
    
    <!-- Plant/Leaf -->
    <path class="leaf" d="M100,170 C80,140 60,140 70,120 C80,100 120,110 130,90 C140,70 100,30 70,70 C40,110 60,170 100,170 Z" />
    <path class="leaf" d="M100,170 C120,140 140,140 130,120 C120,100 80,110 70,90 C60,70 100,30 130,70 C160,110 140,170 100,170 Z" />
    
    <!-- 404 Text -->
    <text class="number" x="0" y="-20">404</text>
  </g>
</svg>
